<?xml version="1.0" encoding="UTF-8"?>
<!DOCTYPE svg PUBLIC "-//W3C//DTD SVG 1.1//EN" "http://www.w3.org/Graphics/SVG/1.1/DTD/svg11.dtd">
<!-- Creator: CorelDRAW X7 -->
<svg xmlns="http://www.w3.org/2000/svg" xml:space="preserve" width="210mm" height="297mm" version="1.1" style="shape-rendering:geometricPrecision; text-rendering:geometricPrecision; image-rendering:optimizeQuality; fill-rule:evenodd; clip-rule:evenodd"
viewBox="0 0 21000 29700"
 xmlns:xlink="http://www.w3.org/1999/xlink">
 <defs>
  <style type="text/css">
   <![CDATA[
    .fil2 {fill:#FEFEFE}
    .fil0 {fill:#494640}
    .fil1 {fill:#EACB7C}
   ]]>
  </style>
 </defs>
 <g id="Слой_x0020_1">
  <metadata id="CorelCorpID_0Corel-Layer"/>
  <g id="_2826943582496">
   <polygon class="fil0" points="1501,23739 19851,23739 19851,5389 1501,5389 "/>
   <path class="fil1" d="M16192 18705c17,8 41,17 71,25 31,9 66,17 105,24 39,7 80,14 123,20 42,7 85,13 128,18 44,5 85,9 123,13l-141 124 -640 -255 640 -286 177 157c-37,4 -78,9 -123,14 -45,5 -90,10 -136,17 -45,7 -89,14 -131,21 -43,8 -81,16 -114,24 -33,9 -60,18 -79,27 -20,9 -30,19 -30,29 0,10 9,19 27,28zm-11529 224l-140 -124c38,-4 79,-8 122,-13 44,-5 87,-11 129,-18 42,-6 83,-13 123,-20 39,-7 74,-15 104,-24 30,-8 54,-17 72,-25 18,-9 26,-18 26,-28 0,-10 -9,-20 -29,-29 -20,-9 -46,-18 -80,-27 -33,-8 -71,-16 -113,-24 -43,-7 -86,-14 -132,-21 -45,-7 -90,-12 -135,-17 -45,-5 -86,-10 -124,-14l177 -157 640 286 -640 255zm12396 -308c-8,-17 -18,-32 -30,-45 -13,-13 -28,-23 -46,-30 -17,-8 -36,-12 -55,-12 -14,0 -39,2 -76,5l-240 -213 -703 325 -2370 0 -453 0 -7730 0 -703 -325 -241 213c-36,-3 -61,-5 -76,-5 -19,0 -37,4 -55,12 -17,7 -33,17 -45,30 -13,13 -23,28 -30,45 -8,18 -12,37 -12,56 0,20 4,39 12,56 7,18 17,33 30,46 12,12 28,23 45,30 18,8 36,11 55,11 9,0 22,0 42,-2 20,-1 44,-3 72,-5l203 180 704 -289 7729 0 453 0 2369 0 704 289 203 -180c28,2 52,4 71,5 20,2 34,2 42,2 19,0 38,-3 55,-11 18,-7 33,-18 46,-30 12,-13 22,-28 30,-46 8,-17 11,-36 11,-56 0,-19 -3,-38 -11,-56z"/>
   <polygon class="fil2" points="7902,17121 7902,17139 7753,17137 7630,17139 7630,17121 7692,17111 7692,16521 7629,16513 7630,16492 7752,16494 7901,16492 7901,16513 7840,16521 7840,16798 8080,16798 8080,16521 8017,16513 8018,16492 8164,16494 8289,16492 8289,16513 8229,16521 8229,17109 8290,17121 8290,17139 8165,17137 8018,17139 8018,17121 8080,17111 8080,16841 7840,16841 7840,17109 "/>
   <path class="fil2" d="M9397 17111c114,0 157,-128 157,-297 0,-168 -43,-297 -157,-297 -113,0 -156,129 -156,297 0,169 43,297 156,297zm0 -628c190,0 310,143 310,331 0,188 -120,331 -310,331 -189,0 -310,-143 -310,-331 0,-188 121,-331 310,-331z"/>
   <path class="fil2" d="M10851 16521l0 590 62 8 -1 20 -128 -3 -131 3 0 -20 59 -8 0 -590 -53 0c-67,-1 -93,27 -115,94l-10 27 -39 0 10 -150 545 0 9 150 -38 0 -9 -27c-23,-67 -48,-95 -116,-94l-45 0z"/>
   <path class="fil2" d="M12324 16492l10 169 -39 0 -9 -28c-26,-80 -65,-114 -155,-113l-85 1 0 279 15 0c64,1 110,-17 110,-74l0 -18 27 0 0 209 -27 0 0 -18c0,-57 -47,-73 -110,-72l-15 0 0 282 113 1c90,1 129,-35 155,-114l9 -28 39 0 -10 169 -381 0 -135 2 0 -18 62 -10 0 -590 -63 -8 1 -21 488 0z"/>
   <path class="fil2" d="M13375 17109l91 0c84,1 117,-37 144,-122l9 -28 39 0 -10 178 -359 0 -124 2 0 -18 62 -10 0 -590 -63 -8 1 -21 122 2 149 -2 0 21 -61 8 0 588z"/>
   <path class="fil2" d="M9739 20207l90 -10 0 -50 -154 4 -153 -4 -2 50 95 10 0 724 -93 13 0 47 155 -2 495 0 22 -232 -52 0 -6 36c-21,116 -90,130 -214,129l-183 0 0 -715z"/>
   <polygon class="fil2" points="10605,20995 10818,20458 10901,20442 10901,20398 10777,20401 10657,20398 10657,20440 10730,20456 10736,20465 10603,20857 10432,20469 10431,20456 10508,20443 10508,20399 10363,20401 10232,20398 10231,20440 10303,20460 10552,20995 "/>
   <path class="fil2" d="M11036 20941l-96 11 3 40 152 -3 155 3 1 -40 -98 -14 -1 -544 -192 14 -3 62 79 27 0 444zm-17 -728c0,39 27,63 72,63 43,0 70,-24 70,-63 0,-39 -27,-60 -70,-60 -45,0 -72,21 -72,60l0 0z"/>
   <polygon class="fil2" points="11662,20995 11876,20458 11958,20442 11958,20398 11834,20401 11714,20398 11714,20440 11787,20456 11793,20465 11660,20857 11489,20469 11488,20456 11566,20443 11566,20399 11421,20401 11290,20398 11289,20440 11361,20460 11609,20995 "/>
   <path class="fil1" d="M11934 8810c38,0 68,54 90,78 12,11 71,42 89,18 14,-16 -10,-44 -36,-51 -24,-5 -68,-43 -98,-87 -11,-17 -39,-70 -48,-70 -47,2 -54,35 -47,74 4,18 33,38 50,38z"/>
   <path class="fil1" d="M12410 9316c15,-12 23,-31 25,-50 0,0 81,50 92,142 10,82 -54,185 -69,268 -2,-12 -6,-22 -12,-30 -19,-28 -71,-38 -86,-57 -40,-61 -40,-116 -40,-207 0,-40 56,-39 90,-66zm-45 -113c-44,5 -86,12 -125,-12 -55,-35 -107,-27 -151,-6 -92,45 -19,99 24,117 66,28 163,30 176,58l-4 7c-30,50 -30,121 -50,166 -30,66 -48,74 -122,90 -45,10 -45,71 -65,86 -19,15 -116,11 -155,11 -101,0 -66,120 9,120 76,0 165,-78 237,-86 65,-6 135,41 165,61 16,10 91,-23 91,-23 34,-16 52,-40 60,-65 0,75 -12,146 -6,160 9,19 29,68 20,125 -9,62 -83,162 -83,162 55,40 99,32 122,18 46,-29 67,-69 47,-236 -11,-83 -51,-135 -46,-239 2,-64 90,-214 73,-326 -17,-113 -147,-150 -147,-150 -18,-60 -288,-269 -288,-269 0,0 33,131 77,168 24,22 91,48 141,63z"/>
   <path class="fil1" d="M13520 12216c0,0 -270,-26 -400,-74 -203,-75 -391,-93 -391,-93 0,0 206,66 335,146 150,93 456,21 456,21z"/>
   <path class="fil1" d="M11624 8756c-50,0 -374,79 -393,88l31 38c20,9 49,16 83,35 12,7 30,24 44,28 73,18 147,-75 176,11 4,13 99,17 107,13 22,-6 34,-43 63,-13 11,9 11,39 29,39 49,0 88,-26 88,-69 0,-20 -78,-68 -78,-68 -43,0 -54,-35 -74,-54 -24,-24 -19,-48 -76,-48z"/>
   <path class="fil1" d="M12494 10887c-19,-34 -53,-75 -54,-129 -2,-150 252,-234 47,-380 -50,-36 -240,-120 -323,-38 -64,65 55,139 101,244 83,188 42,252 -69,83 -35,-54 -60,-132 -99,-173 -59,-57 -124,-47 -124,-47 80,238 170,424 170,711 0,14 29,216 29,302 0,161 244,101 295,282 10,36 -1,73 8,132 0,0 -117,36 -145,65 -51,53 -59,165 -16,180 42,16 61,-88 109,-127 56,-45 177,-34 189,-130 22,-182 -228,-252 -164,-446 19,-57 185,-332 58,-386 -125,-39 -98,-156 -19,-134 57,101 104,85 104,85 -35,-58 -68,-85 -97,-94z"/>
   <path class="fil1" d="M11765 11293c27,-257 -78,-289 -59,-482 11,-123 -38,-157 -9,-165 57,-14 77,336 77,336 0,0 35,-56 39,-141 21,-551 150,130 130,347 -20,211 42,634 221,614 189,-21 -178,-219 -27,-195 47,8 125,100 149,140 65,99 165,112 165,112 0,0 -8,-36 -9,-73 -1,-78 -66,-163 -217,-171 -295,-17 -12,-808 -241,-961 -255,-163 -34,-98 -34,-98 0,0 28,-138 -50,-228 -24,-28 -80,-53 -75,-77 19,-106 424,-2 454,-60 16,-31 -202,-24 -188,-275 9,-181 -297,67 -303,-65 -21,-383 393,-169 343,-356 -25,-98 -434,-251 -574,-251 -188,0 -385,-374 -434,-365 0,109 -61,121 -48,163 -1,10 -292,132 -150,132 108,0 128,125 22,159 -51,17 -88,78 -76,101 7,13 32,13 81,-20 76,-50 125,-57 125,50 0,51 -87,70 -122,133 -25,45 -14,142 -14,142 0,0 72,-119 107,-106 68,26 34,127 122,188 92,63 112,162 112,162 0,0 6,62 6,95 0,219 7,185 88,356 46,93 98,239 104,387 5,149 -71,146 -33,384 52,328 289,453 314,538 27,95 7,159 7,159 0,0 59,-63 60,-154 2,-165 -83,-261 -63,-455z"/>
   <path class="fil1" d="M13544 12255c-60,56 186,166 186,261 0,129 -141,105 -141,15 0,-68 -213,-341 -185,-180 9,50 76,101 86,154 14,71 -13,131 -86,131 -90,0 -21,-170 -116,-170 -135,0 -105,-21 -75,-86 90,-185 -145,-151 -80,56 24,75 -71,184 -151,178 -83,-5 -132,-119 -19,-193 129,-86 24,-122 -59,-145 -75,-22 -92,-69 -127,-90 -137,-89 -116,224 -256,15 -152,-308 -226,211 -379,39 -77,-86 42,-410 -21,-420 -54,-9 -39,84 -39,125 0,150 -132,79 -91,-80 12,-48 30,-146 -30,-86 -115,116 -130,336 -130,526 0,458 825,500 1117,446 157,-30 159,-61 196,-24 99,99 345,-11 349,-6 51,51 211,-8 235,-2 288,68 -40,-596 -184,-464z"/>
   <path class="fil1" d="M10818 8361c64,18 61,113 140,113 155,0 188,39 188,191 0,62 -56,103 41,103 58,0 86,-58 153,-58 24,0 128,-60 226,-87 65,-17 122,0 122,-26 -1,-54 -206,18 -354,-13 -96,-20 -180,-39 -180,-146 0,-70 105,-41 164,-41 268,0 -89,-84 -148,-104 -66,-21 -177,-197 -241,-143 -50,42 176,216 0,124 -52,-28 -224,-107 -224,9 3,39 85,69 113,78z"/>
   <path class="fil1" d="M9192 11356c-67,-174 0,-329 0,-329 0,0 73,155 89,338 15,168 -89,470 -89,470 0,0 57,-332 0,-479zm2034 965c-127,30 -247,11 -336,-78 -148,-148 458,-93 613,-199 62,-42 203,15 205,12 3,-4 -26,-27 -104,-99 -197,-181 -395,102 -582,102 -116,0 -436,-10 -436,89 0,194 -433,-32 -696,-50 -147,-10 -147,-253 -309,-209 -288,77 30,457 -94,533 -315,192 -315,-433 -120,-780 64,-115 325,-382 280,-631 -45,-251 -191,-594 -499,-494 -242,78 -556,227 -783,409 -209,169 -443,464 -463,779 -18,280 64,599 324,708 355,150 767,14 918,-422 16,-45 41,-122 41,-122 -3,184 -55,383 -151,556 -148,267 250,259 432,254 230,-5 451,113 711,127 200,12 493,-18 781,-7 260,10 500,51 632,-36 162,-106 156,-360 -87,-282 -122,38 -304,110 -437,110 -188,0 -199,-176 100,-176 99,0 656,1 595,-104 -94,-160 -318,-41 -535,10z"/>
   <path class="fil1" d="M10488 8492c74,0 175,117 125,175 -25,27 -62,63 -44,89 35,48 96,-63 187,-35 55,25 122,-15 117,35 -10,104 34,133 38,248 2,46 119,45 119,45 0,0 -13,-100 -78,-182 -69,-76 101,-94 101,-146 0,-83 -103,19 -103,-68 0,-83 83,-78 83,-78 0,0 -13,-25 -74,-33 -52,-7 -121,-1 -120,-61 1,-96 -101,-85 -170,-141 -123,-83 -361,152 -181,152z"/>
   <path class="fil1" d="M8930 12537c-5,-57 21,-88 21,-88 0,0 -639,226 -931,-99 -52,-58 -115,-155 -127,-256 0,0 -145,386 111,488 326,130 965,47 965,47 0,0 -33,-17 -39,-92z"/>
   <g>
    <path class="fil1" d="M10617 9411c0,0 -26,166 134,450 68,120 9,479 9,479 0,0 -20,-291 -143,-488 -94,-152 0,-441 0,-441zm306 553c0,0 -5,92 33,191 53,137 116,128 190,256 74,127 32,562 32,562 0,0 -61,-366 -202,-520 -127,-138 -53,-489 -53,-489l0 0zm-785 1719c354,48 184,280 526,289 63,1 229,45 413,0 111,-27 125,-37 292,-205 167,-168 255,57 255,57 0,-569 -425,-107 -425,-482 0,-321 165,-486 165,-752 0,-147 -298,-449 -347,-540 -50,-92 -56,-193 -56,-258 0,0 -101,258 -101,-92 0,-182 -162,42 -136,-193 16,-141 210,-348 -1,-348 -146,0 -38,-103 -68,-174 -26,-60 -89,-64 -133,-73 -25,-149 -179,-149 -214,-214 -34,-64 -4,-202 -4,-202 -182,-43 -211,238 -208,257 -57,9 -98,69 -98,233 0,303 -220,422 -220,624 0,220 36,449 -65,604 -330,495 56,568 56,1063 0,238 81,368 369,406z"/>
   </g>
   <path class="fil2" d="M4711 15465l207 0c188,2 263,-84 324,-276l21 -63 88 0 -23 403 -813 0 -280 4 0 -41 141 -23 0 -1334 -143 -18 2 -47 276 6 337 -6 0 47 -137 18 0 1330z"/>
   <path class="fil2" d="M6937 14070l23 382 -90 0 -21 -64c-57,-179 -145,-257 -349,-255l-192 2 0 631 35 0c143,2 247,-38 247,-167l0 -41 61 0 0 474 -61 0 0 -41c0,-129 -107,-165 -249,-163l-33 0 0 637 255 2c205,2 292,-77 350,-257l20 -64 90 0 -23 383 -862 0 -306 4 0 -41 141 -23 0 -1334 -143 -18 2 -47 1105 0z"/>
   <path class="fil2" d="M8285 15469c257,0 355,-288 355,-670 0,-380 -98,-672 -355,-672 -256,0 -354,292 -354,672 0,382 98,670 354,670zm0 -1420c429,0 700,325 700,750 0,425 -271,748 -700,748 -428,0 -701,-323 -701,-748 0,-425 273,-750 701,-750z"/>
   <path class="fil2" d="M9975 14139l0 705 110 0c242,-2 299,-188 299,-360 0,-169 -82,-347 -321,-345l-88 0zm139 1353l0 41 -308 -4 -295 4 0 -41 141 -23 0 -1334 -143 -18 2 -47 568 0c403,0 630,175 630,408 0,278 -278,435 -630,435l-104 0 0 552 139 27z"/>
   <path class="fil2" d="M11913 15469c257,0 355,-288 355,-670 1,-380 -98,-672 -355,-672 -255,0 -354,292 -354,672 0,382 99,670 354,670zm0 -1420c429,0 701,325 701,750 0,425 -272,748 -701,748 -427,0 -701,-323 -701,-748 0,-425 274,-750 701,-750z"/>
   <path class="fil2" d="M13616 15465l206 0c188,2 264,-84 325,-276l21 -63 87 0 -22 403 -813 0 -280 4 0 -41 141 -23 0 -1334 -143 -18 2 -47 276 6 337 -6 0 47 -137 18 0 1330z"/>
   <polygon class="fil2" points="15372,15492 15372,15533 15078,15529 14783,15533 14783,15492 14924,15469 14924,14135 14781,14117 14783,14070 15074,14076 15370,14070 15370,14117 15233,14135 15233,15465 "/>
   <path class="fil2" d="M16429 15479c141,0 239,-106 239,-249 0,-137 -43,-178 -325,-333 -288,-149 -386,-270 -386,-476 0,-231 292,-370 503,-370 165,0 290,45 335,72l47 -56 61 0 0 419 -78 0c-20,-253 -177,-369 -361,-369 -151,0 -227,102 -227,235 0,141 121,218 304,310 299,141 423,276 423,491 0,255 -253,396 -521,396 -179,0 -304,-59 -384,-112l-45 89 -55 0 0 -465 80 -2c55,304 157,420 390,420z"/>
  </g>
 </g>
</svg>
