<?xml version="1.0" encoding="utf-8"?>
<!-- Generator: Adobe Illustrator 19.0.0, SVG Export Plug-In . SVG Version: 6.00 Build 0)  -->
<svg version="1.1" id="Layer_1" xmlns="http://www.w3.org/2000/svg" xmlns:xlink="http://www.w3.org/1999/xlink" x="0px" y="0px"
	 viewBox="-135 222.2 689 116.8" style="enable-background:new -135 222.2 689 116.8;" xml:space="preserve">
<style type="text/css">
	.st0{fill:#e62b1e;}
	.st1{fill:#ffffff;}
	.st2{fill:none;}
</style>
<g id="XMLID_481_">
	<g id="dW2Vh5_2_">
		<g id="XMLID_483_">
			<path id="XMLID_487_" class="st0" d="M71.1,339c0-38.6,0-77.1,0-115.7c0.5,0,0.9-0.1,1.4-0.1c19.2,0,38.4-0.1,57.6,0
				c8.4,0,16.5,1.6,24,5.5c9,4.6,15.4,11.8,19.7,21c3.7,7.8,5.4,16.1,6,24.8c0.6,9.6,0,19.1-2.6,28.4c-2.2,7.7-5.8,14.6-11.4,20.4
				c-6.5,6.8-14.5,10.9-23.5,13.2c-4.9,1.3-9.9,2-14.9,2.2c-3.3,0.1-6.6,0.2-9.9,0.2c-14.9,0-29.8,0-44.7,0
				C72.3,339,71.7,339,71.1,339z M106.2,309c6.2,0,12.3,0.4,18.3-0.1c8.9-0.8,15.1-5.9,18.2-14.5c2.1-5.8,2.7-11.9,2-18.1
				c-0.5-4.5-1.7-8.7-4.1-12.5c-4.7-7.4-11.9-10.3-20.1-10.9c-4.2-0.3-8.5-0.2-12.7-0.2c-0.5,0-1,0-1.6,0
				C106.2,271.7,106.2,290.4,106.2,309z"/>
			<path id="XMLID_486_" class="st0" d="M65,338.9c-31.9,0-63.8,0-95.7,0c0-38.5,0-77,0-115.6c31.9,0,63.7,0,95.7,0
				c0,9.8,0,19.5,0,29.5c-0.6,0-1.2,0-1.8,0c-19.1,0-38.1,0-57.2,0c-1.8,0-1.8,0-1.8,1.8c0,3.7,0.1,7.4,0,11.1
				c0,1.3,0.3,1.7,1.6,1.7c19.1,0,38.1,0,57.2,0c0.6,0,1.3,0,2,0c0,9.2,0,18.2,0,27.4c-0.5,0-1.1,0.1-1.7,0.1c-19.1,0-38.1,0-57.2,0
				c-1.9,0-1.9,0-1.9,2c0,3.6,0,7.2,0,10.8c0,0.5,0,0.9,0.1,1.5c20.3,0,40.5,0,60.8,0C65,319.2,65,329,65,338.9z"/>
			<path id="XMLID_485_" class="st0" d="M-36.3,223.3c0,9.8,0,19.6,0,29.5c-10.6,0-21.1,0-31.8,0c0,28.8,0,57.4,0,86.1
				c-11.8,0-23.3,0-35.1,0c0-28.6,0-57.3,0-86.1c-10.7,0-21.2,0-31.8,0c0-9.9,0-19.7,0-29.6C-102.1,223.3-69.3,223.3-36.3,223.3z"/>
			<path id="XMLID_484_" class="st0" d="M184.6,223c3.6,0,6.9,0,10.2,0c4.8,0,9.5,0,14.3,0c0.9,0,1.4,0.3,1.8,1.1
				c2.7,4.9,5.4,9.9,8.2,14.8c0.2,0.4,0.4,0.7,0.8,1.2c1.4-2.5,2.8-4.8,4.1-7.2c1.7-3,3.4-6,5.2-9c0.2-0.4,0.8-0.8,1.2-0.8
				c8.2,0,16.4,0,24.9,0c-0.6,1-1.2,1.8-1.7,2.7c-6.9,10.3-13.9,20.7-20.9,31c-0.6,1-0.6,1.6,0,2.5c7.6,11.3,15.1,22.6,22.7,33.8
				c0.2,0.4,0.4,0.7,0.8,1.3c-0.5,0-0.9,0.1-1.3,0.1c-7.7,0-15.4,0-23.1,0c-0.9,0-1.4-0.3-1.8-1.1c-3.1-5.4-6.3-10.7-9.5-16.1
				c-0.1-0.2-0.3-0.4-0.5-0.8c-1.5,2.6-3,5.2-4.5,7.7c-1.8,3.1-3.6,6.2-5.4,9.3c-0.2,0.4-0.8,0.9-1.2,0.9c-8.1,0-16.2,0-24.3,0
				c-0.2,0-0.3-0.1-0.6-0.1c1.2-1.8,2.3-3.5,3.4-5.2c6.8-10.1,13.5-20.2,20.3-30.3c0.5-0.7,0.4-1.2-0.1-1.8
				c-7.3-10.9-14.7-21.7-22-32.6C185.1,224,184.9,223.6,184.6,223z"/>
		</g>
	</g>
	<g id="XMLID_1_">
		<path id="XMLID_2_" class="st1" d="M285.7,222.2h16.1v102.6h51.5V339h-67.6V222.2z"/>
		<path id="XMLID_4_" class="st1" d="M348.8,255.3h16.7l20,56.6c1.5,4.6,2.9,11.4,2.9,11.4h0.3c0,0,1.3-6.8,2.8-11.4l20-56.6h16.6
			L397.7,339h-18L348.8,255.3z"/>
		<path id="XMLID_6_" class="st1" d="M443.4,222.2h16.3v16.2h-16.3V222.2z M443.8,255.3h15.8V339h-15.8V255.3z"/>
		<path id="XMLID_9_" class="st1" d="M474.7,255.3h16.7l20,56.6c1.5,4.6,2.9,11.4,2.9,11.4h0.3c0,0,1.3-6.8,2.8-11.4l20-56.6H554
			L523.6,339h-18L474.7,255.3z"/>
	</g>
</g>
<rect id="_x3C_Slice_x3E_" x="222.4" y="422.5" class="st2" width="89" height="15"/>
</svg>
